<?xml version="1.0" encoding="iso-8859-1"?>
<!-- Generator: Adobe Illustrator 19.0.0, SVG Export Plug-In . SVG Version: 6.00 Build 0)  -->
<svg version="1.1" id="Layer_1" xmlns="http://www.w3.org/2000/svg" xmlns:xlink="http://www.w3.org/1999/xlink" x="0px" y="0px"
	 viewBox="0 0 512 512" style="enable-background:new 0 0 512 512;" xml:space="preserve">
<g>
	<g>
		<path d="M73.143,100.002C30.714,100.002,0,165.538,0,209.716c0,45.37,32.813,82.286,73.143,82.286
			c40.33,0,73.143-36.915,73.143-82.286C146.286,165.538,115.571,100.002,73.143,100.002z M73.143,273.716
			c-30.25,0-54.857-28.71-54.857-64c0-38.237,27.643-91.429,54.857-91.429c27.214,0,54.857,53.192,54.857,91.429
			C128,245.007,103.393,273.716,73.143,273.716z"/>
	</g>
</g>
<g>
	<g>
		<path d="M438.857,100.002c-42.429,0-73.143,65.536-73.143,109.714c0,45.37,32.813,82.286,73.143,82.286
			c40.33,0,73.143-36.915,73.143-82.286C512,165.538,481.286,100.002,438.857,100.002z M438.857,273.716
			c-30.25,0-54.857-28.71-54.857-64c0-38.237,27.643-91.429,54.857-91.429c27.214,0,54.857,53.192,54.857,91.429
			C493.714,245.007,469.107,273.716,438.857,273.716z"/>
	</g>
</g>
<g>
	<g>
		<path d="M445.286,56.966c-3.571-3.571-9.339-3.571-12.911,0l-14.946,14.96L257.496,45.27c-0.982-0.17-2.016-0.17-2.998,0
			L94.563,71.926l-14.955-14.96c-3.571-3.571-9.357-3.571-12.928,0c-3.571,3.571-3.571,9.357,0,12.928l18.286,18.286
			c2.089,2.085,4.491,3.027,7.393,2.554L245.714,65.08v346.922h-36.571v18.286h91.429v-18.286H264V65.08l154.5,25.654
			c0.5,0.085,1.286,0.125,1.786,0.125c2.402,0,4.875-0.951,6.607-2.679l18.357-18.286C448.822,66.323,448.857,60.538,445.286,56.966
			z"/>
	</g>
</g>
<g>
	<g>
		<rect x="163.429" y="448.572" width="173.714" height="18.286"/>
	</g>
</g>
<g>
</g>
<g>
</g>
<g>
</g>
<g>
</g>
<g>
</g>
<g>
</g>
<g>
</g>
<g>
</g>
<g>
</g>
<g>
</g>
<g>
</g>
<g>
</g>
<g>
</g>
<g>
</g>
<g>
</g>
</svg>
