<svg xmlns="http://www.w3.org/2000/svg" width="686" height="380" fill="none" viewBox="0 0 686 380">
  <g clip-path="url(#clip0)">
    <path stroke="#EBEDF0" d="M0 355h686M0 299h686M0 243h686M0 187h686M0 131h686M0 75h686M0 19h686"/>
    <g>
      <path stroke="#EBEDF0" d="M414 134l1 220.998"/>
    </g>
    <g>
      <path fill="#9FA2B4" d="M3.002 377.08c-.813 0-1.433-.307-1.86-.92-.42-.62-.63-1.527-.63-2.72 0-1.193.21-2.097.63-2.71.42-.62 1.04-.93 1.86-.93.82 0 1.44.31 1.86.93.42.613.63 1.513.63 2.7 0 1.193-.213 2.1-.64 2.72-.42.62-1.037.93-1.85.93zm0-.69c.567 0 .983-.24 1.25-.72.273-.48.41-1.227.41-2.24 0-1.013-.137-1.753-.41-2.22-.267-.473-.683-.71-1.25-.71s-.987.237-1.26.71c-.267.473-.4 1.213-.4 2.22 0 1.013.133 1.76.4 2.24.273.48.693.72 1.26.72zM28.852 376.63v-6.27l.47.24-1.93 1.23v-.79l1.82-1.16h.47v6.75h-.83zm-1.57.37v-.69h3.97v.69h-3.97zM52.832 377v-.62l2.49-2.76c.333-.373.577-.71.73-1.01.153-.3.23-.6.23-.9 0-.393-.113-.693-.34-.9-.227-.213-.55-.32-.97-.32-.347 0-.687.07-1.02.21a3.84 3.84 0 00-1 .61l-.31-.63c.28-.267.633-.48 1.06-.64.427-.16.857-.24 1.29-.24.433 0 .807.077 1.12.23.32.147.567.36.74.64.173.28.26.613.26 1 0 .407-.093.8-.28 1.18-.18.373-.483.793-.91 1.26l-2.4 2.6-.06-.4h3.95v.69h-4.58zM80.932 377.07a3.91 3.91 0 01-1.33-.23 3.028 3.028 0 01-1.07-.65l.32-.63c.32.273.65.48.99.62.34.133.697.2 1.07.2.507 0 .89-.113 1.15-.34.267-.227.4-.56.4-1 0-.44-.137-.767-.41-.98-.273-.22-.683-.33-1.23-.33h-.82v-.69h.66c.527 0 .93-.117 1.21-.35.28-.233.42-.567.42-1 0-.387-.117-.683-.35-.89-.227-.207-.55-.31-.97-.31-.353 0-.697.07-1.03.21a3.688 3.688 0 00-.99.61l-.31-.63c.287-.273.64-.487 1.06-.64.42-.16.853-.24 1.3-.24.427 0 .8.077 1.12.23.32.147.563.357.73.63.173.273.26.597.26.97 0 .44-.117.817-.35 1.13-.227.307-.54.517-.94.63l-.03-.1c.48.1.847.303 1.1.61.253.307.38.697.38 1.17 0 .62-.21 1.11-.63 1.47-.42.353-.99.53-1.71.53zM107.772 377v-6.09h.25l-2.96 4.27.01-.41h4.6v.68h-5.18v-.62l3.43-4.95h.67V377h-.82zM133.112 377.07c-.433 0-.86-.077-1.28-.23a3.135 3.135 0 01-1.06-.65l.31-.63c.327.267.657.47.99.61.34.14.687.21 1.04.21.5 0 .89-.14 1.17-.42.287-.287.43-.673.43-1.16a1.69 1.69 0 00-.19-.82 1.368 1.368 0 00-.54-.56 1.574 1.574 0 00-.81-.2c-.34 0-.647.07-.92.21-.267.133-.503.34-.71.62h-.57v-4.17h4.27v.68h-3.45v2.88l-.26-.03c.193-.28.44-.497.74-.65.307-.153.65-.23 1.03-.23.453 0 .847.097 1.18.29.333.187.59.45.77.79.18.34.27.733.27 1.18 0 .447-.1.843-.3 1.19-.193.34-.47.607-.83.8-.36.193-.787.29-1.28.29zM159.232 377.08c-.86 0-1.523-.297-1.99-.89-.467-.6-.7-1.457-.7-2.57 0-.807.107-1.493.32-2.06.22-.573.533-1.01.94-1.31.413-.3.907-.45 1.48-.45.413 0 .813.077 1.2.23.387.147.73.363 1.03.65l-.31.63a3.569 3.569 0 00-.97-.62 2.321 2.321 0 00-.93-.2c-.613 0-1.09.273-1.43.82-.34.54-.51 1.307-.51 2.3v.86l-.12-.27a1.87 1.87 0 01.37-.88c.193-.253.433-.447.72-.58.293-.14.617-.21.97-.21.44 0 .827.097 1.16.29.333.187.593.45.78.79.187.34.28.733.28 1.18 0 .44-.1.833-.3 1.18a2.12 2.12 0 01-.81.82c-.34.193-.733.29-1.18.29zm-.04-.69c.453 0 .82-.143 1.1-.43.28-.293.42-.68.42-1.16 0-.473-.14-.853-.42-1.14-.28-.293-.65-.44-1.11-.44-.307 0-.58.07-.82.21a1.41 1.41 0 00-.56.56c-.133.233-.2.503-.2.81 0 .32.067.6.2.84.133.233.32.417.56.55.24.133.517.2.83.2zM184.012 377h-.88l3.49-6.76.07.33h-4.04v-.69h4.7v.61l-3.34 6.51zM211.002 377.07c-.52 0-.97-.077-1.35-.23a2.056 2.056 0 01-.89-.68c-.207-.293-.31-.643-.31-1.05 0-.493.167-.903.5-1.23.333-.327.78-.53 1.34-.61l-.05.15c-.52-.1-.923-.303-1.21-.61-.28-.307-.42-.68-.42-1.12 0-.387.1-.72.3-1a1.98 1.98 0 01.84-.66c.36-.153.777-.23 1.25-.23s.887.077 1.24.23c.36.153.64.373.84.66.207.28.31.613.31 1 0 .44-.143.817-.43 1.13-.28.307-.677.507-1.19.6l-.06-.15c.58.08 1.03.287 1.35.62.327.327.49.733.49 1.22 0 .407-.107.757-.32 1.05-.207.293-.5.52-.88.68-.38.153-.83.23-1.35.23zm0-.68c.56 0 .99-.113 1.29-.34.3-.227.45-.557.45-.99a1.09 1.09 0 00-.49-.95c-.327-.233-.743-.377-1.25-.43-.507.053-.923.197-1.25.43a1.09 1.09 0 00-.49.95c0 .433.15.763.45.99.3.227.73.34 1.29.34zm0-3.28c.467-.053.843-.197 1.13-.43.293-.233.44-.543.44-.93 0-.4-.14-.71-.42-.93-.273-.227-.657-.34-1.15-.34-.493 0-.88.113-1.16.34-.273.22-.41.53-.41.93 0 .387.143.697.43.93.293.233.673.377 1.14.43zM236.782 369.8c.86 0 1.523.3 1.99.9.467.593.7 1.447.7 2.56 0 .807-.11 1.497-.33 2.07-.213.567-.527 1-.94 1.3-.407.3-.9.45-1.48.45a3.4 3.4 0 01-1.2-.22 3.152 3.152 0 01-1.03-.66l.32-.63c.34.287.663.497.97.63.307.127.617.19.93.19.613 0 1.087-.27 1.42-.81.34-.547.51-1.317.51-2.31v-.86l.13.26a1.94 1.94 0 01-.37.9c-.193.247-.437.44-.73.58-.293.133-.617.2-.97.2a2.31 2.31 0 01-1.15-.28 2.048 2.048 0 01-.78-.8 2.408 2.408 0 01-.28-1.18c0-.44.097-.833.29-1.18.2-.347.473-.617.82-.81.347-.2.74-.3 1.18-.3zm.04.69c-.46 0-.83.147-1.11.44-.273.287-.41.67-.41 1.15 0 .473.14.857.42 1.15.28.287.65.43 1.11.43.307 0 .58-.067.82-.2.24-.14.427-.327.56-.56.133-.24.2-.513.2-.82 0-.32-.067-.597-.2-.83a1.41 1.41 0 00-.56-.56c-.24-.133-.517-.2-.83-.2zM263.804 376.63v-6.27l.47.24-1.93 1.23v-.79l1.82-1.16h.47v6.75h-.83zm-1.57.37v-.69h3.97v.69h-3.97zm7.816.08c-.813 0-1.433-.307-1.86-.92-.42-.62-.63-1.527-.63-2.72 0-1.193.21-2.097.63-2.71.42-.62 1.04-.93 1.86-.93.82 0 1.44.31 1.86.93.42.613.63 1.513.63 2.7 0 1.193-.213 2.1-.64 2.72-.42.62-1.037.93-1.85.93zm0-.69c.567 0 .983-.24 1.25-.72.273-.48.41-1.227.41-2.24 0-1.013-.137-1.753-.41-2.22-.267-.473-.683-.71-1.25-.71s-.987.237-1.26.71c-.267.473-.4 1.213-.4 2.22 0 1.013.133 1.76.4 2.24.273.48.693.72 1.26.72zM297.804 376.63v-6.27l.47.24-1.93 1.23v-.79l1.82-1.16h.47v6.75h-.83zm-1.57.37v-.69h3.97v.69h-3.97zm7.666-.37v-6.27l.47.24-1.93 1.23v-.79l1.82-1.16h.47v6.75h-.83zm-1.57.37v-.69h3.97v.69h-3.97zM331.804 376.63v-6.27l.47.24-1.93 1.23v-.79l1.82-1.16h.47v6.75h-.83zm-1.57.37v-.69h3.97v.69h-3.97zm5.646 0v-.62l2.49-2.76c.333-.373.577-.71.73-1.01.153-.3.23-.6.23-.9 0-.393-.113-.693-.34-.9-.227-.213-.55-.32-.97-.32-.347 0-.687.07-1.02.21a3.84 3.84 0 00-1 .61l-.31-.63c.28-.267.633-.48 1.06-.64.427-.16.857-.24 1.29-.24.433 0 .807.077 1.12.23.32.147.567.36.74.64.173.28.26.613.26 1 0 .407-.093.8-.28 1.18-.18.373-.483.793-.91 1.26l-2.4 2.6-.06-.4h3.95v.69h-4.58zM365.804 376.63v-6.27l.47.24-1.93 1.23v-.79l1.82-1.16h.47v6.75h-.83zm-1.57.37v-.69h3.97v.69h-3.97zm7.746.07c-.46 0-.903-.077-1.33-.23a3.025 3.025 0 01-1.07-.65l.32-.63c.32.273.65.48.99.62.34.133.697.2 1.07.2.507 0 .89-.113 1.15-.34.267-.227.4-.56.4-1 0-.44-.137-.767-.41-.98-.273-.22-.683-.33-1.23-.33h-.82v-.69h.66c.527 0 .93-.117 1.21-.35.28-.233.42-.567.42-1 0-.387-.117-.683-.35-.89-.227-.207-.55-.31-.97-.31-.353 0-.697.07-1.03.21a3.7 3.7 0 00-.99.61l-.31-.63a3.01 3.01 0 011.06-.64c.42-.16.853-.24 1.3-.24.427 0 .8.077 1.12.23.32.147.563.357.73.63.173.273.26.597.26.97 0 .44-.117.817-.35 1.13-.227.307-.54.517-.94.63l-.03-.1c.48.1.847.303 1.1.61.253.307.38.697.38 1.17 0 .62-.21 1.11-.63 1.47-.42.353-.99.53-1.71.53zM399.804 376.63v-6.27l.47.24-1.93 1.23v-.79l1.82-1.16h.47v6.75h-.83zm-1.57.37v-.69h3.97v.69h-3.97zm8.586 0v-6.09h.25l-2.96 4.27.01-.41h4.6v.68h-5.18v-.62l3.43-4.95h.67V377h-.82zM433.804 376.63v-6.27l.47.24-1.93 1.23v-.79l1.82-1.16h.47v6.75h-.83zm-1.57.37v-.69h3.97v.69h-3.97zm7.926.07c-.433 0-.86-.077-1.28-.23a3.135 3.135 0 01-1.06-.65l.31-.63c.327.267.657.47.99.61.34.14.687.21 1.04.21.5 0 .89-.14 1.17-.42.287-.287.43-.673.43-1.16a1.69 1.69 0 00-.19-.82 1.368 1.368 0 00-.54-.56 1.574 1.574 0 00-.81-.2c-.34 0-.647.07-.92.21-.267.133-.503.34-.71.62h-.57v-4.17h4.27v.68h-3.45v2.88l-.26-.03c.193-.28.44-.497.74-.65.307-.153.65-.23 1.03-.23.453 0 .847.097 1.18.29.333.187.59.45.77.79.18.34.27.733.27 1.18 0 .447-.1.843-.3 1.19-.193.34-.47.607-.83.8-.36.193-.787.29-1.28.29zM467.804 376.63v-6.27l.47.24-1.93 1.23v-.79l1.82-1.16h.47v6.75h-.83zm-1.57.37v-.69h3.97v.69h-3.97zm8.046.08c-.86 0-1.523-.297-1.99-.89-.467-.6-.7-1.457-.7-2.57 0-.807.107-1.493.32-2.06.22-.573.533-1.01.94-1.31.413-.3.907-.45 1.48-.45.413 0 .813.077 1.2.23.387.147.73.363 1.03.65l-.31.63a3.569 3.569 0 00-.97-.62 2.321 2.321 0 00-.93-.2c-.613 0-1.09.273-1.43.82-.34.54-.51 1.307-.51 2.3v.86l-.12-.27a1.87 1.87 0 01.37-.88c.193-.253.433-.447.72-.58.293-.14.617-.21.97-.21.44 0 .827.097 1.16.29.333.187.593.45.78.79.187.34.28.733.28 1.18 0 .44-.1.833-.3 1.18a2.12 2.12 0 01-.81.82c-.34.193-.733.29-1.18.29zm-.04-.69c.453 0 .82-.143 1.1-.43.28-.293.42-.68.42-1.16 0-.473-.14-.853-.42-1.14-.28-.293-.65-.44-1.11-.44-.307 0-.58.07-.82.21a1.41 1.41 0 00-.56.56c-.133.233-.2.503-.2.81 0 .32.067.6.2.84.133.233.32.417.56.55.24.133.517.2.83.2zM501.804 376.63v-6.27l.47.24-1.93 1.23v-.79l1.82-1.16h.47v6.75h-.83zm-1.57.37v-.69h3.97v.69h-3.97zm6.826 0h-.88l3.49-6.76.07.33h-4.04v-.69h4.7v.61l-3.34 6.51zM535.804 376.63v-6.27l.47.24-1.93 1.23v-.79l1.82-1.16h.47v6.75h-.83zm-1.57.37v-.69h3.97v.69h-3.97zm7.816.07c-.52 0-.97-.077-1.35-.23a2.056 2.056 0 01-.89-.68c-.207-.293-.31-.643-.31-1.05 0-.493.167-.903.5-1.23.333-.327.78-.53 1.34-.61l-.05.15c-.52-.1-.923-.303-1.21-.61-.28-.307-.42-.68-.42-1.12 0-.387.1-.72.3-1a1.98 1.98 0 01.84-.66c.36-.153.777-.23 1.25-.23s.887.077 1.24.23c.36.153.64.373.84.66.207.28.31.613.31 1 0 .44-.143.817-.43 1.13-.28.307-.677.507-1.19.6l-.06-.15c.58.08 1.03.287 1.35.62.327.327.49.733.49 1.22 0 .407-.107.757-.32 1.05-.207.293-.5.52-.88.68-.38.153-.83.23-1.35.23zm0-.68c.56 0 .99-.113 1.29-.34.3-.227.45-.557.45-.99a1.09 1.09 0 00-.49-.95c-.327-.233-.743-.377-1.25-.43-.507.053-.923.197-1.25.43a1.09 1.09 0 00-.49.95c0 .433.15.763.45.99.3.227.73.34 1.29.34zm0-3.28c.467-.053.843-.197 1.13-.43.293-.233.44-.543.44-.93 0-.4-.14-.71-.42-.93-.273-.227-.657-.34-1.15-.34-.493 0-.88.113-1.16.34-.273.22-.41.53-.41.93 0 .387.143.697.43.93.293.233.673.377 1.14.43zM569.804 376.63v-6.27l.47.24-1.93 1.23v-.79l1.82-1.16h.47v6.75h-.83zm-1.57.37v-.69h3.97v.69h-3.97zm7.596-7.2c.86 0 1.523.3 1.99.9.467.593.7 1.447.7 2.56 0 .807-.11 1.497-.33 2.07-.213.567-.527 1-.94 1.3-.407.3-.9.45-1.48.45a3.4 3.4 0 01-1.2-.22 3.152 3.152 0 01-1.03-.66l.32-.63c.34.287.663.497.97.63.307.127.617.19.93.19.613 0 1.087-.27 1.42-.81.34-.547.51-1.317.51-2.31v-.86l.13.26a1.94 1.94 0 01-.37.9c-.193.247-.437.44-.73.58-.293.133-.617.2-.97.2a2.31 2.31 0 01-1.15-.28 2.048 2.048 0 01-.78-.8 2.408 2.408 0 01-.28-1.18c0-.44.097-.833.29-1.18.2-.347.473-.617.82-.81.347-.2.74-.3 1.18-.3zm.04.69c-.46 0-.83.147-1.11.44-.273.287-.41.67-.41 1.15 0 .473.14.857.42 1.15.28.287.65.43 1.11.43.307 0 .58-.067.82-.2.24-.14.427-.327.56-.56.133-.24.2-.513.2-.82 0-.32-.067-.597-.2-.83a1.41 1.41 0 00-.56-.56c-.24-.133-.517-.2-.83-.2zM601.784 377v-.62l2.49-2.76c.333-.373.577-.71.73-1.01.153-.3.23-.6.23-.9 0-.393-.113-.693-.34-.9-.227-.213-.55-.32-.97-.32-.347 0-.687.07-1.02.21a3.84 3.84 0 00-1 .61l-.31-.63c.28-.267.633-.48 1.06-.64.427-.16.857-.24 1.29-.24.433 0 .807.077 1.12.23.32.147.567.36.74.64.173.28.26.613.26 1 0 .407-.093.8-.28 1.18-.18.373-.483.793-.91 1.26l-2.4 2.6-.06-.4h3.95v.69h-4.58zm8.266.08c-.813 0-1.433-.307-1.86-.92-.42-.62-.63-1.527-.63-2.72 0-1.193.21-2.097.63-2.71.42-.62 1.04-.93 1.86-.93.82 0 1.44.31 1.86.93.42.613.63 1.513.63 2.7 0 1.193-.213 2.1-.64 2.72-.42.62-1.037.93-1.85.93zm0-.69c.567 0 .983-.24 1.25-.72.273-.48.41-1.227.41-2.24 0-1.013-.137-1.753-.41-2.22-.267-.473-.683-.71-1.25-.71s-.987.237-1.26.71c-.267.473-.4 1.213-.4 2.22 0 1.013.133 1.76.4 2.24.273.48.693.72 1.26.72zM635.784 377v-.62l2.49-2.76c.333-.373.577-.71.73-1.01.153-.3.23-.6.23-.9 0-.393-.113-.693-.34-.9-.227-.213-.55-.32-.97-.32-.347 0-.687.07-1.02.21a3.84 3.84 0 00-1 .61l-.31-.63c.28-.267.633-.48 1.06-.64.427-.16.857-.24 1.29-.24.433 0 .807.077 1.12.23.32.147.567.36.74.64.173.28.26.613.26 1 0 .407-.093.8-.28 1.18-.18.373-.483.793-.91 1.26l-2.4 2.6-.06-.4h3.95v.69h-4.58zm8.116-.37v-6.27l.47.24-1.93 1.23v-.79l1.82-1.16h.47v6.75h-.83zm-1.57.37v-.69h3.97v.69h-3.97zM669.784 377v-.62l2.49-2.76c.333-.373.577-.71.73-1.01.153-.3.23-.6.23-.9 0-.393-.113-.693-.34-.9-.227-.213-.55-.32-.97-.32-.347 0-.687.07-1.02.21a3.84 3.84 0 00-1 .61l-.31-.63c.28-.267.633-.48 1.06-.64.427-.16.857-.24 1.29-.24.433 0 .807.077 1.12.23.32.147.567.36.74.64.173.28.26.613.26 1 0 .407-.093.8-.28 1.18-.18.373-.483.793-.91 1.26l-2.4 2.6-.06-.4h3.95v.69h-4.58zm6.096 0v-.62l2.49-2.76c.333-.373.577-.71.73-1.01.153-.3.23-.6.23-.9 0-.393-.113-.693-.34-.9-.227-.213-.55-.32-.97-.32-.347 0-.687.07-1.02.21a3.84 3.84 0 00-1 .61l-.31-.63c.28-.267.633-.48 1.06-.64.427-.16.857-.24 1.29-.24.433 0 .807.077 1.12.23.32.147.567.36.74.64.173.28.26.613.26 1 0 .407-.093.8-.28 1.18-.18.373-.483.793-.91 1.26l-2.4 2.6-.06-.4h3.95v.69h-4.58z"/>
    </g>
    <g>
      <path fill="#9FA2B4" d="M683.004 346.08c-.813 0-1.433-.307-1.86-.92-.42-.62-.63-1.527-.63-2.72 0-1.193.21-2.097.63-2.71.42-.62 1.04-.93 1.86-.93.82 0 1.44.31 1.86.93.42.613.63 1.513.63 2.7 0 1.193-.213 2.1-.64 2.72-.42.62-1.037.93-1.85.93zm0-.69c.567 0 .983-.24 1.25-.72.273-.48.41-1.227.41-2.24 0-1.013-.137-1.753-.41-2.22-.267-.473-.683-.71-1.25-.71s-.987.237-1.26.71c-.267.473-.4 1.213-.4 2.22 0 1.013.133 1.76.4 2.24.273.48.693.72 1.26.72zM676.758 289.63v-6.27l.47.24-1.93 1.23v-.79l1.82-1.16h.47v6.75h-.83zm-1.57.37v-.69h3.97v.69h-3.97zm7.816.08c-.813 0-1.433-.307-1.86-.92-.42-.62-.63-1.527-.63-2.72 0-1.193.21-2.097.63-2.71.42-.62 1.04-.93 1.86-.93.82 0 1.44.31 1.86.93.42.613.63 1.513.63 2.7 0 1.193-.213 2.1-.64 2.72-.42.62-1.037.93-1.85.93zm0-.69c.567 0 .983-.24 1.25-.72.273-.48.41-1.227.41-2.24 0-1.013-.137-1.753-.41-2.22-.267-.473-.683-.71-1.25-.71s-.987.237-1.26.71c-.267.473-.4 1.213-.4 2.22 0 1.013.133 1.76.4 2.24.273.48.693.72 1.26.72zM674.738 234v-.62l2.49-2.76c.333-.373.576-.71.73-1.01.153-.3.23-.6.23-.9 0-.393-.114-.693-.34-.9-.227-.213-.55-.32-.97-.32-.347 0-.687.07-1.02.21a3.825 3.825 0 00-1 .61l-.31-.63c.28-.267.633-.48 1.06-.64.426-.16.856-.24 1.29-.24.433 0 .806.077 1.12.23.32.147.566.36.74.64.173.28.26.613.26 1 0 .407-.094.8-.28 1.18-.18.373-.484.793-.91 1.26l-2.4 2.6-.06-.4h3.95v.69h-4.58zm8.266.08c-.813 0-1.433-.307-1.86-.92-.42-.62-.63-1.527-.63-2.72 0-1.193.21-2.097.63-2.71.42-.62 1.04-.93 1.86-.93.82 0 1.44.31 1.86.93.42.613.63 1.513.63 2.7 0 1.193-.213 2.1-.64 2.72-.42.62-1.037.93-1.85.93zm0-.69c.567 0 .983-.24 1.25-.72.273-.48.41-1.227.41-2.24 0-1.013-.137-1.753-.41-2.22-.267-.473-.683-.71-1.25-.71s-.987.237-1.26.71c-.267.473-.4 1.213-.4 2.22 0 1.013.133 1.76.4 2.24.273.48.693.72 1.26.72zM676.838 178.07c-.46 0-.904-.077-1.33-.23a3.025 3.025 0 01-1.07-.65l.32-.63c.32.273.65.48.99.62.34.133.696.2 1.07.2.506 0 .89-.113 1.15-.34.266-.227.4-.56.4-1 0-.44-.137-.767-.41-.98-.274-.22-.684-.33-1.23-.33h-.82v-.69h.66c.526 0 .93-.117 1.21-.35.28-.233.42-.567.42-1 0-.387-.117-.683-.35-.89-.227-.207-.55-.31-.97-.31-.354 0-.697.07-1.03.21a3.67 3.67 0 00-.99.61l-.31-.63a3 3 0 011.06-.64c.42-.16.853-.24 1.3-.24.426 0 .8.077 1.12.23.32.147.563.357.73.63.173.273.26.597.26.97 0 .44-.117.817-.35 1.13-.227.307-.54.517-.94.63l-.03-.1c.48.1.846.303 1.1.61.253.307.38.697.38 1.17 0 .62-.21 1.11-.63 1.47-.42.353-.99.53-1.71.53zm6.166.01c-.813 0-1.433-.307-1.86-.92-.42-.62-.63-1.527-.63-2.72 0-1.193.21-2.097.63-2.71.42-.62 1.04-.93 1.86-.93.82 0 1.44.31 1.86.93.42.613.63 1.513.63 2.7 0 1.193-.213 2.1-.64 2.72-.42.62-1.037.93-1.85.93zm0-.69c.567 0 .983-.24 1.25-.72.273-.48.41-1.227.41-2.24 0-1.013-.137-1.753-.41-2.22-.267-.473-.683-.71-1.25-.71s-.987.237-1.26.71c-.267.473-.4 1.213-.4 2.22 0 1.013.133 1.76.4 2.24.273.48.693.72 1.26.72zM677.678 122v-6.09h.25l-2.96 4.27.01-.41h4.6v.68h-5.18v-.62l3.43-4.95h.67V122h-.82zm5.326.08c-.813 0-1.433-.307-1.86-.92-.42-.62-.63-1.527-.63-2.72 0-1.193.21-2.097.63-2.71.42-.62 1.04-.93 1.86-.93.82 0 1.44.31 1.86.93.42.613.63 1.513.63 2.7 0 1.193-.213 2.1-.64 2.72-.42.62-1.037.93-1.85.93zm0-.69c.567 0 .983-.24 1.25-.72.273-.48.41-1.227.41-2.24 0-1.013-.137-1.753-.41-2.22-.267-.473-.683-.71-1.25-.71s-.987.237-1.26.71c-.267.473-.4 1.213-.4 2.22 0 1.013.133 1.76.4 2.24.273.48.693.72 1.26.72zM677.018 66.07c-.434 0-.86-.077-1.28-.23a3.12 3.12 0 01-1.06-.65l.31-.63c.326.267.656.47.99.61.34.14.686.21 1.04.21.5 0 .89-.14 1.17-.42.286-.287.43-.673.43-1.16a1.7 1.7 0 00-.19-.82 1.37 1.37 0 00-.54-.56 1.572 1.572 0 00-.81-.2c-.34 0-.647.07-.92.21-.267.133-.504.34-.71.62h-.57v-4.17h4.27v.68h-3.45v2.88l-.26-.03c.193-.28.44-.497.74-.65a2.27 2.27 0 011.03-.23c.453 0 .846.097 1.18.29.333.187.59.45.77.79.18.34.27.733.27 1.18 0 .447-.1.843-.3 1.19-.194.34-.47.607-.83.8-.36.193-.787.29-1.28.29zm5.986.01c-.813 0-1.433-.307-1.86-.92-.42-.62-.63-1.527-.63-2.72 0-1.193.21-2.097.63-2.71.42-.62 1.04-.93 1.86-.93.82 0 1.44.31 1.86.93.42.613.63 1.513.63 2.7 0 1.193-.213 2.1-.64 2.72-.42.62-1.037.93-1.85.93zm0-.69c.567 0 .983-.24 1.25-.72.273-.48.41-1.227.41-2.24 0-1.013-.137-1.753-.41-2.22-.267-.473-.683-.71-1.25-.71s-.987.237-1.26.71c-.267.473-.4 1.213-.4 2.22 0 1.013.133 1.76.4 2.24.273.48.693.72 1.26.72zM677.138 10.08c-.86 0-1.524-.297-1.99-.89-.467-.6-.7-1.457-.7-2.57 0-.807.106-1.493.32-2.06.22-.573.533-1.01.94-1.31.413-.3.906-.45 1.48-.45.413 0 .813.077 1.2.23.386.147.73.363 1.03.65l-.31.63a3.584 3.584 0 00-.97-.62 2.316 2.316 0 00-.93-.2c-.614 0-1.09.273-1.43.82-.34.54-.51 1.307-.51 2.3v.86l-.12-.27c.053-.34.176-.633.37-.88.193-.253.433-.447.72-.58.293-.14.616-.21.97-.21.44 0 .826.097 1.16.29.333.187.593.45.78.79.186.34.28.733.28 1.18 0 .44-.1.833-.3 1.18-.194.347-.464.62-.81.82-.34.193-.734.29-1.18.29zm-.04-.69c.453 0 .82-.143 1.1-.43.28-.293.42-.68.42-1.16 0-.473-.14-.853-.42-1.14-.28-.293-.65-.44-1.11-.44-.307 0-.58.07-.82.21-.24.133-.427.32-.56.56-.134.233-.2.503-.2.81 0 .32.066.6.2.84.133.233.32.417.56.55.24.133.516.2.83.2zm5.906.69c-.813 0-1.433-.307-1.86-.92-.42-.62-.63-1.527-.63-2.72 0-1.193.21-2.097.63-2.71.42-.62 1.04-.93 1.86-.93.82 0 1.44.31 1.86.93.42.613.63 1.513.63 2.7 0 1.193-.213 2.1-.64 2.72-.42.62-1.037.93-1.85.93zm0-.69c.567 0 .983-.24 1.25-.72.273-.48.41-1.227.41-2.24 0-1.013-.137-1.753-.41-2.22-.267-.473-.683-.71-1.25-.71s-.987.237-1.26.71c-.267.473-.4 1.213-.4 2.22 0 1.013.133 1.76.4 2.24.273.48.693.72 1.26.72z"/>
    </g>
    <g>
      <mask id="a" width="576" height="336" x="0" y="19" maskUnits="userSpaceOnUse">
        <path fill="#C4C4C4" d="M0 19h576v336H0z"/>
      </mask>
      <g mask="url(#a)">
        <path fill="url(#paint0_linear)" d="M94.477 188.886C47.559 187.226 2.943 265.21-9.132 297.727V400.5H595.72V144c-55.975-2.5-73.677-58.895-116.585-58.895-42.907 0-81.646 81.64-103.495 124.536-17.939 38.191-40.823 46.355-50.023 45.663-42.778 1.66-75.321-83.715-86.246-126.611-9.659-48.154-20.534-58.117-25.874-58.117-8.958-.03-22.424 14.115-36.223 62.268-13.799 48.154-35.648 61.576-44.848 62.268-12.868.968-28.174-6.226-37.948-6.226z" opacity=".1"/>
        <path fill="#DFE0EB" d="M-8.691 173.898c18.973-9.304 33.083-10.571 44.394-7.404 11.338 3.175 20.05 10.852 28.133 19.837 4.046 4.497 7.892 9.27 11.846 13.963 3.941 4.677 7.972 9.251 12.33 13.266 8.733 8.044 18.835 13.889 32.291 13.889v-2c-12.787 0-22.428-5.523-30.936-13.36-4.262-3.926-8.226-8.421-12.156-13.083-3.915-4.647-7.814-9.484-11.888-14.013-8.155-9.064-17.182-17.093-29.08-20.425-11.927-3.339-26.553-1.911-45.815 7.534l.88 1.796zm128.994 53.551c13.319 0 22.453-3.481 29.585-8.898 7.087-5.382 12.138-12.641 17.338-20.011 5.224-7.406 10.624-14.968 18.454-21.246 7.809-6.26 18.078-11.273 33.062-13.46l-.289-1.979c-15.316 2.235-25.922 7.383-34.024 13.879-8.079 6.477-13.625 14.263-18.838 21.653-5.238 7.426-10.117 14.41-16.913 19.571-6.75 5.128-15.449 8.491-28.375 8.491v2zm98.439-63.615c14.818-2.163 28.315 2.74 41.058 11.442 12.759 8.713 24.678 21.177 36.31 34.001 11.6 12.789 22.931 25.954 34.427 35.899 11.492 9.94 23.325 16.824 35.979 16.824v-2c-11.92 0-23.288-6.491-34.67-16.337-11.378-9.841-22.593-22.873-34.254-35.729-11.629-12.82-23.688-25.448-36.665-34.31-12.993-8.873-26.993-14.029-42.474-11.769l.289 1.979zM366.516 262c12.805 0 23.712-9.306 33.081-22.773 9.398-13.507 17.439-31.475 24.453-49.362 3.509-8.951 6.767-17.9 9.812-26.277 3.046-8.384 5.875-16.189 8.534-22.875 2.662-6.696 5.133-12.216 7.454-16.051 1.161-1.919 2.256-3.367 3.283-4.325 1.034-.964 1.897-1.337 2.611-1.337v-2c-1.433 0-2.762.744-3.975 1.875-1.219 1.137-2.426 2.761-3.631 4.752-2.411 3.985-4.932 9.637-7.601 16.347-2.672 6.72-5.512 14.556-8.555 22.931-3.045 8.38-6.296 17.306-9.794 26.23-7.004 17.863-14.977 35.645-24.233 48.95C388.67 251.431 378.284 260 366.516 260v2zm89.228-143c1.728 0 3.191.887 4.539 2.71 1.366 1.847 2.529 4.553 3.612 7.924 1.079 3.358 2.054 7.288 3.081 11.54 1.024 4.241 2.099 8.793 3.372 13.345 2.543 9.09 5.91 18.312 11.383 25.271 5.512 7.008 13.155 11.71 24.114 11.71v-2c-10.274 0-17.363-4.361-22.542-10.946-5.218-6.635-8.501-15.538-11.029-24.573-1.261-4.51-2.326-9.021-3.354-13.276-1.025-4.244-2.015-8.244-3.121-11.683-1.101-3.425-2.342-6.384-3.908-8.501-1.584-2.143-3.58-3.521-6.147-3.521v2zm50.101 72.5c21.601 0 39.104-12.175 56.329-24.31 17.327-12.206 34.38-24.374 55.365-25.191l-.078-1.998c-21.68.843-39.221 13.425-56.438 25.554-17.319 12.2-34.311 23.945-55.178 23.945v2z"/>
        <path fill="#3751FF" d="M94.01 188.886l-.035 1h.036v-1zm37.779 6.226l.075.997-.075-.997zm80.707-124.535l-.004 1h.004v-1zm25.757 58.116l-.98.196.011.05.969-.246zm85.859 126.611l.075-.997a.868.868 0 00-.114-.002l.039.999zm49.797-45.663l-.891-.452a.365.365 0 00-.014.028l.905.424zM-8.194 298.074c5.976-16.166 20.035-43.698 38.41-66.964 9.187-11.631 19.424-22.159 30.235-29.669 10.814-7.512 22.137-11.96 33.524-11.555l.072-1.999c-11.966-.425-23.71 4.252-34.737 11.911-11.028 7.661-21.404 18.35-30.663 30.072-18.513 23.44-32.672 51.159-38.716 67.511l1.875.693zM94.011 189.886c4.705 0 10.777 1.747 17.489 3.445 6.617 1.676 13.776 3.276 20.364 2.778l-.151-1.994c-6.222.47-13.086-1.042-19.722-2.722-6.542-1.656-12.954-3.507-17.98-3.507v2zm37.853 6.223c4.936-.373 12.887-4.102 21.282-13.673 8.42-9.598 17.352-25.134 24.251-49.317l-1.924-.549c-6.838 23.971-15.65 39.222-23.83 48.547-8.204 9.352-15.708 12.679-19.93 12.998l.151 1.994zm45.533-62.99c6.856-24.035 13.609-39.502 19.715-48.934 6.143-9.49 11.462-12.622 15.38-12.609l.007-2c-5-.017-10.842 3.908-17.066 13.522-6.26 9.67-13.079 25.353-19.96 49.472l1.924.549zm35.099-61.543c1.009 0 2.457.476 4.253 2.06 1.794 1.582 3.879 4.223 6.132 8.414 4.505 8.384 9.592 22.803 14.392 46.839l1.961-.392c-4.817-24.119-9.951-38.758-14.592-47.394-2.32-4.318-4.539-7.177-6.57-8.968-2.03-1.789-3.929-2.559-5.576-2.559v2zm24.788 57.363c5.451 21.502 16.297 53.658 31.134 80.255 7.417 13.297 15.86 25.255 25.165 33.796s19.561 13.742 30.568 13.313l-.078-1.998c-10.286.401-20.05-4.447-29.137-12.788-9.086-8.34-17.407-20.095-24.772-33.297-14.727-26.4-25.518-58.379-30.942-79.773l-1.938.492zm86.752 127.362c9.735.735 32.825-7.842 50.779-46.237l-1.811-.847c-17.764 37.987-40.235 45.738-48.817 45.09l-.151 1.994zm50.765-46.208c10.89-21.477 25.934-52.536 43.586-78.24 8.825-12.85 18.271-24.313 28.134-32.554 9.868-8.246 20.066-13.194 30.419-13.194v-2c-11.005 0-21.646 5.257-31.702 13.66-10.06 8.406-19.625 20.034-28.499 32.956-17.747 25.84-32.861 57.049-43.721 78.468l1.783.904zM476.94 86.105c20.909 0 35.694 13.775 52.498 28.267 16.718 14.418 35.284 29.36 63.517 30.627l.09-1.998c-27.491-1.233-45.598-15.738-62.3-30.143-16.617-14.33-32-28.753-53.805-28.753v2z"/>
        <circle cx="414" cy="134" r="13" stroke="#3751FF" stroke-width="2" opacity=".16"/>
        <g filter="url(#filter0_d)">
          <circle cx="414" cy="134" r="7" fill="#fff"/>
          <circle cx="414" cy="134" r="5" stroke="#3751FF" stroke-width="4"/>
        </g>
        <g filter="url(#filter1_d)">
          <mask id="b" width="66" height="38" x="381" y="72" fill="#000" maskUnits="userSpaceOnUse">
            <path fill="#fff" d="M381 72h66v38h-66z"/>
            <path fill-rule="evenodd" d="M386 73h56a4 4 0 014 4v22a4 4 0 01-4 4h-21l-6.74 5.777a.4.4 0 01-.52 0L407 103h-21a4 4 0 01-4-4V77a4 4 0 014-4z" clip-rule="evenodd"/>
          </mask>
          <path fill="#fff" fill-rule="evenodd" d="M386 73h56a4 4 0 014 4v22a4 4 0 01-4 4h-21l-6.74 5.777a.4.4 0 01-.52 0L407 103h-21a4 4 0 01-4-4V77a4 4 0 014-4z" clip-rule="evenodd"/>
          <path fill="#DFE0EB" d="M442 103v.5-.5zm-21 0v-.5h-.185l-.14.12.325.38zm-6.74 5.777l-.325-.38.325.38zm-.52 0l.325-.38-.325.38zM407 103l.325-.38-.14-.12H407v.5zm-21 0v.5-.5zm56-30.5h-56v1h56v-1zm4.5 4.5a4.5 4.5 0 00-4.5-4.5v1a3.5 3.5 0 013.5 3.5h1zm0 22V77h-1v22h1zm-4.5 4.5a4.5 4.5 0 004.5-4.5h-1a3.5 3.5 0 01-3.5 3.5v1zm-21 0h21v-1h-21v1zm-.325-.88l-6.74 5.777.651.759 6.739-5.776-.65-.76zm-6.74 5.777a.1.1 0 01.13 0l-.651.759a.9.9 0 001.172 0l-.651-.759zm.13 0l-6.74-5.777-.65.76 6.739 5.776.651-.759zM386 103.5h21v-1h-21v1zm-4.5-4.5a4.5 4.5 0 004.5 4.5v-1a3.5 3.5 0 01-3.5-3.5h-1zm0-22v22h1V77h-1zm4.5-4.5a4.5 4.5 0 00-4.5 4.5h1a3.5 3.5 0 013.5-3.5v-1z" mask="url(#b)"/>
        </g>
        <path fill="#252733" d="M411.075 87.876c.579.168 1.022.457 1.33.868.308.41.462.929.462 1.554 0 .868-.308 1.554-.924 2.058-.606.495-1.432.742-2.478.742a5.904 5.904 0 01-1.904-.308c-.597-.215-1.096-.513-1.498-.896l.518-1.064c.896.728 1.844 1.092 2.842 1.092 1.363 0 2.044-.574 2.044-1.722 0-.56-.177-.975-.532-1.246-.354-.28-.891-.42-1.61-.42h-1.218v-1.176h.994c.691 0 1.218-.145 1.582-.434.364-.29.546-.71.546-1.26 0-.504-.154-.891-.462-1.162-.298-.27-.723-.406-1.274-.406-.933 0-1.857.364-2.772 1.092l-.518-1.064c.392-.373.887-.667 1.484-.882a5.584 5.584 0 011.876-.322c.934 0 1.676.233 2.226.7.56.457.84 1.078.84 1.862 0 .57-.135 1.064-.406 1.484-.27.42-.653.723-1.148.91zm8.721 0c.644.177 1.143.48 1.498.91.364.43.546.947.546 1.554 0 .859-.331 1.535-.994 2.03-.653.485-1.535.728-2.646.728s-1.997-.243-2.66-.728c-.653-.495-.98-1.171-.98-2.03 0-.616.182-1.139.546-1.568.364-.43.873-.728 1.526-.896-.579-.187-1.031-.48-1.358-.882a2.214 2.214 0 01-.476-1.414c0-.532.145-.999.434-1.4.289-.401.691-.71 1.204-.924.513-.224 1.101-.336 1.764-.336s1.251.112 1.764.336c.513.215.915.523 1.204.924.289.401.434.868.434 1.4 0 .541-.159 1.017-.476 1.428-.317.401-.761.69-1.33.868zm-3.612-2.17c0 .485.182.882.546 1.19.364.299.854.49 1.47.574.616-.084 1.106-.275 1.47-.574.364-.308.546-.705.546-1.19 0-.513-.182-.91-.546-1.19-.355-.29-.845-.434-1.47-.434s-1.12.145-1.484.434c-.355.28-.532.677-.532 1.19zm2.016 6.23c.719 0 1.274-.145 1.666-.434.392-.29.588-.71.588-1.26 0-.513-.205-.92-.616-1.218-.401-.308-.947-.504-1.638-.588-.691.084-1.241.28-1.652.588-.401.299-.602.705-.602 1.218 0 .55.196.97.588 1.26.392.29.947.434 1.666.434z"/>
      </g>
    </g>
  </g>
  <defs>
    <filter id="filter0_d" width="18" height="18" x="405" y="126" color-interpolation-filters="sRGB" filterUnits="userSpaceOnUse">
      <feFlood flood-opacity="0" result="BackgroundImageFix"/>
      <feColorMatrix in="SourceAlpha" values="0 0 0 0 0 0 0 0 0 0 0 0 0 0 0 0 0 0 127 0"/>
      <feOffset dy="1"/>
      <feGaussianBlur stdDeviation="1"/>
      <feColorMatrix values="0 0 0 0 0.215686 0 0 0 0 0.317647 0 0 0 0 1 0 0 0 0.2 0"/>
      <feBlend in2="BackgroundImageFix" result="effect1_dropShadow"/>
      <feBlend in="SourceGraphic" in2="effect1_dropShadow" result="shape"/>
    </filter>
    <filter id="filter1_d" width="73" height="44.873" x="377.5" y="69.5" color-interpolation-filters="sRGB" filterUnits="userSpaceOnUse">
      <feFlood flood-opacity="0" result="BackgroundImageFix"/>
      <feColorMatrix in="SourceAlpha" values="0 0 0 0 0 0 0 0 0 0 0 0 0 0 0 0 0 0 127 0"/>
      <feOffset dy="1"/>
      <feGaussianBlur stdDeviation="2"/>
      <feColorMatrix values="0 0 0 0 0 0 0 0 0 0 0 0 0 0 0 0 0 0 0.08 0"/>
      <feBlend in2="BackgroundImageFix" result="effect1_dropShadow"/>
      <feBlend in="SourceGraphic" in2="effect1_dropShadow" result="shape"/>
    </filter>
    <linearGradient id="paint0_linear" x1="-.394" x2="576.103" y1="244.5" y2="244.978" gradientUnits="userSpaceOnUse">
      <stop stop-color="#3751FF"/>
      <stop offset="1" stop-color="#3751FF" stop-opacity="0"/>
    </linearGradient>
    <clipPath id="clip0">
      <path fill="#fff" d="M0 0h686v380H0z"/>
    </clipPath>
  </defs>
</svg>
