<svg xmlns="http://www.w3.org/2000/svg" width="16" height="16" fill="none" viewBox="0 0 16 16">
  <g clip-path="url(#clip0)">
    <path fill="#DDE2FF" d="M15.523 8.941H8.544l4.648 4.648c.178.178.47.192.653.02a7.044 7.044 0 002.15-4.143.471.471 0 00-.472-.525zm-.465-1.906A7.076 7.076 0 008.494.472.473.473 0 008 .948V7.53h6.582a.473.473 0 00.476-.494zm-8.47 1.906V1.962a.471.471 0 00-.524-.472 7.054 7.054 0 00-6.06 7.227c.128 3.769 3.373 6.86 7.144 6.812a7.004 7.004 0 003.978-1.295c.232-.165.248-.507.046-.708L6.588 8.94z"/>
  </g>
  <defs>
    <clipPath id="clip0">
      <path fill="#fff" d="M0 0h16v16H0z"/>
    </clipPath>
  </defs>
</svg>
