<svg height="512" viewBox="0 0 512 512" width="512" xmlns="http://www.w3.org/2000/svg"><g id="Flat"><path d="m360 168h24a8 8 0 0 1 8 8v32a8 8 0 0 1 -8 8h-24z" fill="#b3b1b3"/><path d="m157.83 390.35c7.1 8.22 18.17 22.78 18.17 33.65v56a16 16 0 0 0 16 16h128a16 16 0 0 0 16-16v-56c0-10.87 11.07-25.43 18.17-33.65v-268.7c-7.1-8.22-18.17-22.78-18.17-33.65v-56a16 16 0 0 0 -16-16h-128a16 16 0 0 0 -16 16v56c0 10.87-11.07 25.43-18.17 33.65z" fill="#e4e4e3"/><rect fill="#cacac9" height="272" rx="32" width="240" x="136" y="120"/><rect fill="#4e4e4e" height="208" rx="16" transform="matrix(0 1 -1 0 512 0)" width="240" x="136" y="152"/><g fill="#808080"><path d="m168 152h64v16h-64z"/><path d="m168 184h40v16h-40z"/><path d="m168 344h16v16h-16z"/><path d="m328 344h16v16h-16z"/><path d="m328 152h16v16h-16z"/><path d="m168 216h16v16h-16z"/></g><path d="m256 312a55.921 55.921 0 0 1 -29.879-8.631 8 8 0 0 1 -1.671-12.1 7.926 7.926 0 0 1 10.116-1.5 40 40 0 1 0 27.984-73.242 7.934 7.934 0 0 1 -6.55-7.858 7.975 7.975 0 0 1 9.213-7.911 56 56 0 0 1 -9.213 111.242z" fill="#85bb40"/><path d="m256 344a88.035 88.035 0 0 1 -86.269-70.556 7.988 7.988 0 0 1 7.07-9.484 7.969 7.969 0 0 1 8.615 6.321 72.007 72.007 0 1 0 77.775-85.925 7.987 7.987 0 0 1 -7.191-7.951 8.013 8.013 0 0 1 8.813-7.967 88 88 0 0 1 -8.813 175.562z" fill="#e53d5d"/><path d="m256 280a24 24 0 0 1 -12.169-3.327 7.981 7.981 0 0 1 .172-13.75 8.155 8.155 0 0 1 8.094.055 8 8 0 0 0 8.014-13.839 8.125 8.125 0 0 1 -4.111-6.91v-.309a7.876 7.876 0 0 1 11.789-6.82 24 24 0 0 1 -11.789 44.9z" fill="#5db9d2"/></g></svg>